<svg baseProfile="full" height="100%" version="1.1" viewBox="0 0 639.018 124.998" width="100%" xmlns="http://www.w3.org/2000/svg" xmlns:ev="http://www.w3.org/2001/xml-events" xmlns:xlink="http://www.w3.org/1999/xlink"><defs /><path d="M0.000,2.359 C0.000,2.359 0.000,122.641 0.000,122.641 0.000,122.641 38.962,122.641 38.962,122.641 72.383,122.641 79.269,98.887 79.269,60.815 79.269,32.513 76.413,2.359 40.474,2.359 40.474,2.359 0.000,2.359 0.000,2.359 ZM24.184,104.783 C24.184,104.783 24.184,20.216 24.184,20.216 24.184,20.216 34.428,20.216 34.428,20.216 52.734,20.216 55.085,34.198 55.085,61.489 55.085,94.171 51.558,104.783 35.436,104.783 35.436,104.783 24.184,104.783 24.184,104.783 ZM112.856,2.359 C112.856,2.359 81.115,122.641 81.115,122.641 81.115,122.641 106.306,122.641 106.306,122.641 106.306,122.641 111.848,97.203 111.848,97.203 111.848,97.203 143.757,97.203 143.757,97.203 143.757,97.203 149.300,122.641 149.300,122.641 149.300,122.641 174.491,122.641 174.491,122.641 174.491,122.641 142.750,2.359 142.750,2.359 142.750,2.359 112.856,2.359 112.856,2.359 ZM127.971,23.247 C127.971,23.247 139.559,77.324 139.559,77.324 139.559,77.324 116.047,77.324 116.047,77.324 116.047,77.324 127.635,23.247 127.635,23.247 127.635,23.247 127.971,23.247 127.971,23.247 ZM165.759,2.359 C165.759,2.359 196.829,75.303 196.829,75.303 196.829,75.303 196.829,122.641 196.829,122.641 196.829,122.641 221.012,122.641 221.012,122.641 221.012,122.641 221.012,75.303 221.012,75.303 221.012,75.303 252.082,2.359 252.082,2.359 252.082,2.359 225.883,2.359 225.883,2.359 225.883,2.359 209.088,48.853 209.088,48.853 209.088,48.853 208.752,48.853 208.752,48.853 208.752,48.853 192.966,2.359 192.966,2.359 192.966,2.359 165.759,2.359 165.759,2.359 ZM260.981,2.359 C260.981,2.359 260.981,122.641 260.981,122.641 260.981,122.641 327.990,122.641 327.990,122.641 327.990,122.641 327.990,102.762 327.990,102.762 327.990,102.762 285.165,102.762 285.165,102.762 285.165,102.762 285.165,2.359 285.165,2.359 285.165,2.359 260.981,2.359 260.981,2.359 ZM339.913,2.359 C339.913,2.359 339.913,122.641 339.913,122.641 339.913,122.641 364.097,122.641 364.097,122.641 364.097,122.641 364.097,2.359 364.097,2.359 364.097,2.359 339.913,2.359 339.913,2.359 ZM421.197,0.000 C388.952,0.000 380.891,22.910 380.891,61.320 380.891,106.974 388.952,124.998 416.494,124.998 427.578,124.998 435.976,121.124 441.686,111.521 441.686,111.521 442.021,111.521 442.021,111.521 442.021,111.521 442.021,122.641 442.021,122.641 442.021,122.641 459.823,122.641 459.823,122.641 459.823,122.641 459.823,57.782 459.823,57.782 459.823,57.782 420.693,57.782 420.693,57.782 420.693,57.782 420.693,75.639 420.693,75.639 420.693,75.639 436.647,75.639 436.647,75.639 436.647,75.639 436.647,87.769 436.647,87.769 436.647,101.077 427.578,107.142 421.700,107.142 410.448,107.142 405.074,96.529 405.074,60.142 405.074,26.111 411.624,17.857 421.533,17.857 431.609,17.857 435.136,28.975 435.304,38.072 435.304,38.072 458.480,38.072 458.480,38.072 458.480,12.466 446.388,0.000 421.197,0.000 ZM475.442,2.359 C475.442,2.359 475.442,122.641 475.442,122.641 475.442,122.641 499.626,122.641 499.626,122.641 499.626,122.641 499.626,69.238 499.626,69.238 499.626,69.238 527.840,69.238 527.840,69.238 527.840,69.238 527.840,122.641 527.840,122.641 527.840,122.641 552.024,122.641 552.024,122.641 552.024,122.641 552.024,2.359 552.024,2.359 552.024,2.359 527.840,2.359 527.840,2.359 527.840,2.359 527.840,48.348 527.840,48.348 527.840,48.348 499.626,48.348 499.626,48.348 499.626,48.348 499.626,2.359 499.626,2.359 499.626,2.359 475.442,2.359 475.442,2.359 ZM562.437,2.359 C562.437,2.359 562.437,22.236 562.437,22.236 562.437,22.236 588.635,22.236 588.635,22.236 588.635,22.236 588.635,122.641 588.635,122.641 588.635,122.641 612.819,122.641 612.819,122.641 612.819,122.641 612.819,22.236 612.819,22.236 612.819,22.236 639.018,22.236 639.018,22.236 639.018,22.236 639.018,2.359 639.018,2.359 639.018,2.359 562.437,2.359 562.437,2.359 Z" fill="rgb(255,255,255)" /></svg>