<svg baseProfile="full" height="100%" version="1.1" viewBox="0 0 639.237 124.656" width="100%" xmlns="http://www.w3.org/2000/svg" xmlns:ev="http://www.w3.org/2001/xml-events" xmlns:xlink="http://www.w3.org/1999/xlink"><defs /><path d="M0.000,2.354 C0.000,2.354 0.000,122.304 0.000,122.304 0.000,122.304 38.976,122.304 38.976,122.304 72.408,122.304 79.296,98.616 79.296,60.649 79.296,32.424 76.440,2.354 40.488,2.354 40.488,2.354 0.000,2.354 0.000,2.354 ZM24.192,104.497 C24.192,104.497 24.192,20.161 24.192,20.161 24.192,20.161 34.440,20.161 34.440,20.161 52.752,20.161 55.104,34.105 55.104,61.321 55.104,93.913 51.576,104.497 35.448,104.497 35.448,104.497 24.192,104.497 24.192,104.497 ZM112.895,2.354 C112.895,2.354 81.143,122.304 81.143,122.304 81.143,122.304 106.343,122.304 106.343,122.304 106.343,122.304 111.887,96.937 111.887,96.937 111.887,96.937 143.807,96.937 143.807,96.937 143.807,96.937 149.351,122.304 149.351,122.304 149.351,122.304 174.550,122.304 174.550,122.304 174.550,122.304 142.799,2.354 142.799,2.354 142.799,2.354 112.895,2.354 112.895,2.354 ZM128.015,23.185 C128.015,23.185 139.607,77.112 139.607,77.112 139.607,77.112 116.087,77.112 116.087,77.112 116.087,77.112 127.679,23.185 127.679,23.185 127.679,23.185 128.015,23.185 128.015,23.185 ZM165.816,2.354 C165.816,2.354 196.896,75.096 196.896,75.096 196.896,75.096 196.896,122.304 196.896,122.304 196.896,122.304 221.088,122.304 221.088,122.304 221.088,122.304 221.088,75.096 221.088,75.096 221.088,75.096 252.168,2.354 252.168,2.354 252.168,2.354 225.960,2.354 225.960,2.354 225.960,2.354 209.160,48.722 209.160,48.722 209.160,48.722 208.824,48.722 208.824,48.722 208.824,48.722 193.032,2.354 193.032,2.354 193.032,2.354 165.816,2.354 165.816,2.354 ZM261.070,2.354 C261.070,2.354 261.070,122.304 261.070,122.304 261.070,122.304 328.102,122.304 328.102,122.304 328.102,122.304 328.102,102.481 328.102,102.481 328.102,102.481 285.262,102.481 285.262,102.481 285.262,102.481 285.262,2.354 285.262,2.354 285.262,2.354 261.070,2.354 261.070,2.354 ZM340.030,2.354 C340.030,2.354 340.030,122.304 340.030,122.304 340.030,122.304 364.222,122.304 364.222,122.304 364.222,122.304 364.222,2.354 364.222,2.354 364.222,2.354 340.030,2.354 340.030,2.354 ZM421.341,0.000 C389.085,0.000 381.021,22.849 381.021,61.153 381.021,106.681 389.085,124.656 416.637,124.656 427.725,124.656 436.125,120.792 441.837,111.216 441.837,111.216 442.173,111.216 442.173,111.216 442.173,111.216 442.173,122.304 442.173,122.304 442.173,122.304 459.981,122.304 459.981,122.304 459.981,122.304 459.981,57.625 459.981,57.625 459.981,57.625 420.837,57.625 420.837,57.625 420.837,57.625 420.837,75.433 420.837,75.433 420.837,75.433 436.797,75.433 436.797,75.433 436.797,75.433 436.797,87.528 436.797,87.528 436.797,100.800 427.725,106.849 421.845,106.849 410.589,106.849 405.213,96.265 405.213,59.977 405.213,26.041 411.765,17.810 421.677,17.810 431.757,17.810 435.285,28.898 435.453,37.969 435.453,37.969 458.637,37.969 458.637,37.969 458.637,12.433 446.541,0.000 421.341,0.000 ZM475.605,2.354 C475.605,2.354 475.605,122.304 475.605,122.304 475.605,122.304 499.797,122.304 499.797,122.304 499.797,122.304 499.797,69.049 499.797,69.049 499.797,69.049 528.021,69.049 528.021,69.049 528.021,69.049 528.021,122.304 528.021,122.304 528.021,122.304 552.213,122.304 552.213,122.304 552.213,122.304 552.213,2.354 552.213,2.354 552.213,2.354 528.021,2.354 528.021,2.354 528.021,2.354 528.021,48.217 528.021,48.217 528.021,48.217 499.797,48.217 499.797,48.217 499.797,48.217 499.797,2.354 499.797,2.354 499.797,2.354 475.605,2.354 475.605,2.354 ZM562.629,2.354 C562.629,2.354 562.629,22.177 562.629,22.177 562.629,22.177 588.837,22.177 588.837,22.177 588.837,22.177 588.837,122.304 588.837,122.304 588.837,122.304 613.029,122.304 613.029,122.304 613.029,122.304 613.029,22.177 613.029,22.177 613.029,22.177 639.237,22.177 639.237,22.177 639.237,22.177 639.237,2.354 639.237,2.354 639.237,2.354 562.629,2.354 562.629,2.354 Z" fill="rgb(255,255,255)" /></svg>